<svg width="36" height="36" viewBox="0 0 36 36" fill="none" xmlns="http://www.w3.org/2000/svg">
<path d="M25.0621 26.5677L9.00523 10.5108C8.45663 9.96218 8.45663 9.05229 9.00523 8.50368C9.55384 7.95507 10.4637 7.95507 11.0123 8.50368L27.0692 24.5605C27.6178 25.1092 27.6178 26.019 27.0692 26.5677C26.5206 27.1163 25.6107 27.1163 25.0621 26.5677Z" fill="#fff"/>
<path d="M9.00354 26.5675C8.45493 26.0189 8.45493 25.109 9.00354 24.5604L25.0604 8.50355C25.609 7.95494 26.5189 7.95494 27.0675 8.50355C27.6161 9.05216 27.6161 9.96205 27.0675 10.5107L11.0106 26.5675C10.462 27.1161 9.55215 27.1161 9.00354 26.5675Z" fill="#fff"/>
</svg>
